PathFileType	4	(X/Y/Z)	pose_F01_0-84.trc
DataRate	CameraRate	NumFrames	NumMarkers	Units	OrigDataRate	OrigDataStartFrame	OrigNumFrames
30	30	9	21	m	30	48	84
Frame#	Time	CHip			RHip			RKnee			RAnkle			RBigToe			RSmallToe			RHeel			LHip			LKnee			LAnkle			LBigToe			LSmallToe			LHeel			Neck			Nose			RShoulder			RElbow			RWrist			LShoulder			LElbow			LWrist			
		X1	Y1	Z1	X2	Y2	Z2	X3	Y3	Z3	X4	Y4	Z4	X5	Y5	Z5	X6	Y6	Z6	X7	Y7	Z7	X8	Y8	Z8	X9	Y9	Z9	X10	Y10	Z10	X11	Y11	Z11	X12	Y12	Z12	X13	Y13	Z13	X14	Y14	Z14	X15	Y15	Z15	X16	Y16	Z16	X17	Y17	Z17	X18	Y18	Z18	X19	Y19	Z19	X20	Y20	Z20	X21	Y21	Z21	
48	1.6	-0.18684849592821212	1.8364443291668042	-0.5294000726534017	-0.20071489169224552	1.8350830573568633	-0.4738886773882222	-0.19505387635293217	1.7238019510542522	-0.5078416355188038				-0.206526394023957	1.5667447983689506	-0.5680718513943285							-0.17162408311518554	1.840297679539086	-0.6021960072429384	-0.17100908150466348	1.719804452734131	-0.5862157609326535	-0.149680053688789	1.6061377612764678	-0.5714703283639426	-0.15227678805248523	1.5844752595663156	-0.6307007269799714	-0.14307510174648458	1.5921419527094223	-0.6409135681325379	-0.14904220959821038	1.5964487394729319	-0.5491040019934793	-1.6830727603202833	1.889016835712357	1.0885769939954328	-0.1878958318592862	2.036273876964853	-0.6115511397613146	-0.20671909383338027	1.9782892093427396	-0.47854125947441933	-0.22231637867023243	1.9035925169641623	-0.418720133794296	-0.2226195247802729	1.8494702310574809	-0.460152316846854	-1.499749332900722	1.8897195760553211	0.8048886455150505	-0.14585728396201006	1.9077594360123262	-0.6542611753332025	-0.14920178570745093	1.846231811899778	-0.6736408559112846
49	1.6333333333333333	-0.19215536604889846	1.8366649050124617	-0.5191989349877414	-0.20855244372261306	1.8332681646427997	-0.464720662259995	-0.19505387635293217	1.7238019510542522	-0.5078416355188038				-0.206526394023957	1.5667447983689506	-0.5680718513943285							-0.17638116379140772	1.8380358310221037	-0.5798349597694386	-0.17134995814184398	1.7169517122310716	-0.5637520603658595	-0.15945395490880165	1.6033294120068422	-0.5594254861532431	-0.17562933689935933	1.5778245420514816	-0.5971488417348253	-0.16662886794930257	1.584735189770183	-0.611469622701702	-0.14904220959821038	1.5964487394729319	-0.5491040019934793	-1.7072733292390627	1.8888486884662081	1.128217723537835	-0.19721949996573054	2.03641309294499	-0.5965970915597264	-0.2107707577974294	1.9785122916978497	-0.46521499886845125	-0.22423933313053296	1.901595259259629	-0.4159054668245842	-0.22942362380983336	1.8381395325527607	-0.4554399683474644	-1.5017699761756225	1.8896880498120137	0.807002720178662	-0.15324969843681008	1.9070589884045508	-0.6501574584203388	-0.15588407389458206	1.8459480274255002	-0.6663790656480542
50	1.6666666666666667	-0.1944251220081707	1.834319408733083	-0.5165607461692854	-0.21196942640530017	1.8322319062498844	-0.4570273119808846	-0.19505387635293217	1.7238019510542522	-0.5078416355188038				-0.206526394023957	1.5667447983689506	-0.5680718513943285							-0.17904831644543961	1.8360818439930482	-0.5686865729990728	-0.18379510919515385	1.7148197373814786	-0.5458097652830106	-0.16922785612881427	1.6005210627372166	-0.5473806439425435	-0.1989818857462334	1.5711738245366478	-0.5635969564896792	-0.19018263415212056	1.5773284268309438	-0.5820256772708662	-0.14904220959821038	1.5964487394729319	-0.5491040019934793	-1.7209282313056578	1.8886635512252394	1.1498819557609867	-0.1976421904718352	2.0337383933981923	-0.5786105195350932	-0.21268398281224732	1.9778179888016587	-0.45432516547935897	-0.22346630516504512	1.9075938407569843	-0.4050012965579936	-0.22959271969888773	1.8455495042667462	-0.4295810500478003	-1.5086528522795037	1.8892976997415263	0.8146165085340185	-0.1573065968018279	1.9075756961546129	-0.6457415798620126	-0.15876033465701714	1.844993448916835	-0.658880579012252
51	1.7	-0.19960970347182916	1.8335959502598422	-0.5065423905880763	-0.21497430088305763	1.83299627466179	-0.44922179681486446	-0.19505387635293217	1.7238019510542522	-0.5078416355188038				-0.206526394023957	1.5667447983689506	-0.5680718513943285							-0.18337704032459476	1.8345370390863425	-0.5637438022626368	-0.19063859446901923	1.7136700054149367	-0.5381474318913633	-0.1790017573488269	1.597712713467591	-0.5353358017318439	-0.19903401356211792	1.5701232885820584	-0.5633032118408927	-0.19144400864160066	1.5772008044036072	-0.5764032571120289	-0.14904220959821038	1.5964487394729319	-0.5491040019934793	-1.724124768580708	1.8887474230338583	1.1540356378817915	-0.20248363977499187	2.033360295370359	-0.5673157159551109	-0.2127172714774324	1.977090909394461	-0.4455520942913086	-0.22048209700217697	1.9019372423616665	-0.394290034057067	-0.2315558560484222	1.8349562227240621	-0.42592233285104814	-0.16578176982874954	1.9808904775756047	-0.6291443028282027	-0.156004796745237	1.9072552740810107	-0.6392969941172022	-0.1615434482350923	1.8439190081502879	-0.6560628070358016
52	1.7333333333333334	-0.2006187818694175	1.8355492981426087	-0.5010559169304248	-0.2147675253388143	1.8350425247854765	-0.440391228182727	-0.19505387635293217	1.7238019510542522	-0.5078416355188038				-0.206526394023957	1.5667447983689506	-0.5680718513943285							-0.18529520174376496	1.8360309408210074	-0.5614274961295332	-0.19145965616890684	1.7169551013538087	-0.5331695531206547	-0.18877565856883954	1.5949043641979654	-0.5232909595211443	-0.19908614137800246	1.5690727526274688	-0.5630094671921061	-0.19022318906698027	1.5775559864679647	-0.5820809998806448	-0.14904220959821038	1.5964487394729319	-0.5491040019934793	-1.7489608373933858	1.8886425535096045	1.1946864190790734	-0.20567496460456985	2.033959107925951	-0.5595241099298638	-0.21155230098718028	1.9782482770225251	-0.4421082172581866	-0.22112624048887827	1.9007952498681377	-0.3883715680310373	-0.23404346614289362	1.832830963642736	-0.40029388473957084	-1.54393113046	1.8903737969501035	0.8658082356199284	-0.15931901330865356	1.9050292566366451	-0.6313600508370181	-0.16549636058838665	1.8402118382795214	-0.6511646304661382
53	1.7666666666666666	-0.2017853195078249	1.8360143891155227	-0.4865011559198087	-0.21454075555956	1.8334334026403318	-0.4227593153816194	-0.19505387635293217	1.7238019510542522	-0.5078416355188038				-0.206526394023957	1.5667447983689506	-0.5680718513943285							-0.18835499652532622	1.8361840566045275	-0.5536823064228799	-0.19368333379733954	1.7168989615435288	-0.5219588805544678	-0.18877565856883954	1.5949043641979654	-0.5232909595211443	-0.20237025047964968	1.5686535147412783	-0.5551303996404343	-0.1917033368299676	1.5758523437744636	-0.5758479917441878	-0.14904220959821038	1.5964487394729319	-0.5491040019934793	-0.19532970959744622	1.978807025683003	-0.5124419335663494	-0.2107702685449641	2.035624416644527	-0.5501450306587679	-0.2172181320973724	1.9784053037056821	-0.426886375292729	-0.22570761788986432	1.903814110456574	-0.3787175512411021	-0.23661857852938856	1.8363602962584658	-0.38368322196137916	-1.6071649611788885	1.889413973906428	0.9659947059450077	-0.1649960688655288	1.9030470412443847	-0.6209645243995817	-0.16498475127890624	1.8357323426953394	-0.6473964676253762
54	1.8	-0.20692725179784496	1.835474949641516	-0.4676942912536913	-0.2216264193663794	1.833817636145756	-0.41029386393804557	-0.19505387635293217	1.7238019510542522	-0.5078416355188038				-0.206526394023957	1.5667447983689506	-0.5680718513943285							-0.1932933286191863	1.8372711797372197	-0.5313077556596754	-0.1927873066384442	1.7161309516905212	-0.5096286888824888	-0.18877565856883954	1.5949043641979654	-0.5232909595211443	-0.20222422880563456	1.5680919541601661	-0.5549455472807714	-0.19074415324944294	1.576104411858145	-0.5724938433617505	-0.14904220959821038	1.5964487394729319	-0.5491040019934793	-0.19867178701798396	1.9788998467571126	-0.4964501748236979	-0.21304746626689378	2.036344169341529	-0.5397451816367979	-0.2171763037529604	1.978888162876719	-0.4098870326015824	-0.22963735522589407	1.9010627764213313	-0.3652322158475496	-0.24109908630509888	1.8327147508340678	-0.36424730785478804	-1.6235057047774577	1.889505112108637	0.9903625451893571	-0.1703187717793636	1.904990989424919	-0.6106477357734114	-0.1685899405374404	1.837006992836291	-0.6308671044170842
55	1.8333333333333333	-0.21185578980507913	1.8337344260232287	-0.45738127796084815	-0.22626354775263918	1.8319176031778737	-0.400066274557697	-0.19505387635293217	1.7238019510542522	-0.5078416355188038				-0.206526394023957	1.5667447983689506	-0.5680718513943285							-0.19432852934047037	1.8362944154726344	-0.5170809727820359	-0.19365743443925637	1.7147614991283195	-0.5041585509528509	-0.18877565856883954	1.5949043641979654	-0.5232909595211443	-0.20071667608274116	1.565928329332835	-0.5518306456758668	-0.18902047658085322	1.5754733471371114	-0.569805602820349	-0.14904220959821038	1.5964487394729319	-0.5491040019934793	-0.20371773850403413	1.9781896275252853	-0.4863687346635728	-0.2142667216990064	2.0365516269574946	-0.5255999446291384	-0.22194566464227145	1.9781032929786486	-0.39970317694561897	-0.22963020765287576	1.8965405307862557	-0.341109839546179	-0.24652422805629418	1.8278607660570663	-0.34821769858017737	-1.636896560682505	1.8890773608922733	1.0118163512305067	-0.17026090162486884	1.9010431198677786	-0.5895172138111392	-0.170663943115342	1.8335536186907155	-0.6158620908545634
56	1.8666666666666667	-0.21842472456200612	1.83339783904291	-0.4448935510769463	-0.22834633396309167	1.833061433170837	-0.3744308135279055	-0.19505387635293217	1.7238019510542522	-0.5078416355188038				-0.206526394023957	1.5667447983689506	-0.5680718513943285							-0.2041881728502225	1.8341974206709863	-0.5053706184494053	-0.19365743443925637	1.7147614991283195	-0.5041585509528509	-0.18877565856883954	1.5949043641979654	-0.5232909595211443	-0.20074861101340338	1.5727021026470889	-0.5395946720548643	-0.18948498393369806	1.5815199815555256	-0.556877476752815	-0.14904220959821038	1.5964487394729319	-0.5491040019934793	-0.2106693348932657	1.9783583826034659	-0.47400993775071687	-0.21935263397163335	2.036258682357322	-0.5158703668950732	-0.22848679534595095	1.977898589932175	-0.38756954572572777	-0.23741198460251398	1.9019822735582763	-0.3333338709035803	-0.25396476010137103	1.8341239170373054	-0.33105141859555165	-1.6634141733122219	1.8887465980093794	1.0537508566414235	-0.17983267664168787	1.9000122730402105	-0.5746953322652151	-0.17569659309453767	1.8344310844009455	-0.6058354869681937
